<?xml version="1.0" standalone="no"?><!DOCTYPE svg PUBLIC "-//W3C//DTD SVG 1.1//EN" "http://www.w3.org/Graphics/SVG/1.1/DTD/svg11.dtd"><svg t="1735632703327" class="icon" viewBox="0 0 1024 1024" version="1.1" xmlns="http://www.w3.org/2000/svg" p-id="9101" id="mx_n_1735632703327" width="200" height="200" xmlns:xlink="http://www.w3.org/1999/xlink"><path d="M853.333333 213.333333H170.666667C76.8 213.333333 0 290.133333 0 384v426.666667c0 93.866667 76.8 170.666667 170.666667 170.666666h682.666666c93.866667 0 170.666667-76.8 170.666667-170.666666V384c0-93.866667-76.8-170.666667-170.666667-170.666667z m85.333334 597.333334c0 46.933333-38.4 85.333333-85.333334 85.333333H170.666667c-46.933333 0-85.333333-38.4-85.333334-85.333333V384c0-46.933333 38.4-85.333333 85.333334-85.333333h682.666666c46.933333 0 85.333333 38.4 85.333334 85.333333v426.666667z" fill="#ffffff" p-id="9102" data-spm-anchor-id="a313x.search_index.0.i12.7c823a81kWIuLC" class=""></path><path d="M640 469.333333H384c-46.933333 0-85.333333 38.4-85.333333 85.333334v128c0 46.933333 38.4 85.333333 85.333333 85.333333h256c46.933333 0 85.333333-38.4 85.333333-85.333333v-128c0-46.933333-38.4-85.333333-85.333333-85.333334z m0 213.333334H384v-128h256v128z" fill="#ffffff" p-id="9103"></path><path d="M298.666667 170.666667h426.666666v42.666666h85.333334V170.666667c0-46.933333-38.4-85.333333-85.333334-85.333334H298.666667c-46.933333 0-85.333333 38.4-85.333334 85.333334v42.666666h85.333334V170.666667z" fill="#ffffff" p-id="9104"></path><path d="M38.4 597.333333c0-25.6 17.066667-42.666667 42.666667-42.666666h230.4c25.6 0 42.666667 17.066667 42.666666 42.666666s-17.066667 42.666667-42.666666 42.666667H81.066667c-25.6 0-42.666667-17.066667-42.666667-42.666667zM682.666667 597.333333c0-25.6 17.066667-42.666667 42.666666-42.666666h230.4c25.6 0 42.666667 17.066667 42.666667 42.666666s-17.066667 42.666667-42.666667 42.666667H725.333333c-25.6 0-42.666667-17.066667-42.666666-42.666667z" fill="#ffffff" p-id="9105"></path></svg>